<?xml version="1.0" standalone="no"?>
<!DOCTYPE svg PUBLIC "-//W3C//DTD SVG 1.1//EN"
  "http://www.w3.org/Graphics/SVG/1.1/DTD/svg11.dtd">
<svg width="219mm" height="48.999999999999986mm" viewBox="180 70.99999999999999 219 48.999999999999986" xmlns="http://www.w3.org/2000/svg" version="1.1">
	<title>svgOutput</title>
	<desc>made with tinkercad</desc>
<path d="M 181.01699829101562 115.84300231933591 L 181 115.49999999999997 L 181 75.49999999999999 L 181.01699829101562 75.15699768066405 L 181.06700134277344 74.81700134277342 L 181.1510009765625 74.48400115966795 L 181.26600646972656 74.16000366210936 L 181.41299438476562 73.84999847412108 L 181.4862060546875 73.72799682617186 L 181.58999633789062 73.55500030517577 L 181.79400634765625 73.27899932861327 L 182.02499389648438 73.02500152587889 L 182.27999877929688 72.7939987182617 L 182.55599975585938 72.58999633789061 L 182.85000610351562 72.41300201416014 L 183.16099548339844 72.26599884033202 L 183.48399353027344 72.15100097656249 L 183.81700134277344 72.06700134277342 L 184.15699768066406 72.01699829101561 L 184.32000732421875 72.00891876220702 L 184.5 71.99999999999999 L 186.0030059814453 71.99999999999999 L 392.99798583984375 71.99999999999999 L 394.5 71.99999999999999 L 394.8429870605469 72.01699829101561 L 395.1830139160156 72.06700134277342 L 395.5159912109375 72.15100097656249 L 395.8389892578125 72.26599884033202 L 396.1499938964844 72.41300201416014 L 396.44500732421875 72.58999633789061 L 396.7200012207031 72.7939987182617 L 396.9750061035156 73.02500152587889 L 397.20599365234375 73.27899932861327 L 397.4100036621094 73.55500030517577 L 397.5137939453125 73.72799682617186 L 397.5870056152344 73.84999847412108 L 397.7340087890625 74.16000366210936 L 397.8489990234375 74.48400115966795 L 397.9330139160156 74.81700134277342 L 397.9830017089844 75.15699768066405 L 398 75.49999999999999 L 398 77.00199890136717 L 398 115.49999999999997 L 397.9830017089844 115.84300231933591 L 397.9330139160156 116.18299865722653 L 397.8489990234375 116.515998840332 L 397.7340087890625 116.838996887207 L 397.5870056152344 117.15000152587888 L 397.4100036621094 117.4440002441406 L 397.31201171875 117.57659149169919 L 397.20599365234375 117.7200012207031 L 396.9750061035156 117.97499847412107 L 396.7200012207031 118.20500183105466 L 396.44500732421875 118.41000366210935 L 396.1499938964844 118.58699798583982 L 395.8389892578125 118.73300170898435 L 395.5159912109375 118.84899902343747 L 395.1830139160156 118.93299865722653 L 394.8429870605469 118.98300170898435 L 394.5 118.99999999999997 L 184.5 118.99999999999997 L 184.32000732421875 118.99108123779294 L 184.15699768066406 118.98300170898435 L 183.81700134277344 118.93299865722653 L 183.48399353027344 118.84899902343747 L 183.30300903320312 118.78399658203122 L 183.16099548339844 118.73300170898435 L 182.9980010986328 118.65647888183591 L 182.85000610351562 118.58699798583982 L 182.55599975585938 118.41000366210935 L 182.27999877929688 118.20500183105466 L 182.02499389648438 117.97499847412107 L 181.79400634765625 117.7200012207031 L 181.58999633789062 117.4440002441406 L 181.41299438476562 117.15000152587888 L 181.26600646972656 116.838996887207 L 181.1510009765625 116.515998840332 L 181.06700134277344 116.18299865722653 L 181.01699829101562 115.84300231933591 M 184.03599548339844 116.92900085449216 L 184.32000732421875 116.97367858886716 L 184.5 117.00199890136716 L 184.96400451660156 116.92900085449216 L 185.38299560546875 116.7149963378906 L 185.71600341796875 116.38300323486325 L 185.9290008544922 115.963996887207 L 186.0030059814453 115.49999999999997 L 185.9290008544922 115.03600311279294 L 185.75209045410156 114.68800354003903 L 185.71600341796875 114.61699676513669 L 185.38299560546875 114.28399658203122 L 184.96400451660156 114.07099914550778 L 184.5 113.99700164794919 L 184.03599548339844 114.07099914550778 L 183.61700439453125 114.28399658203122 L 183.28399658203125 114.61699676513669 L 183.24790954589844 114.68800354003903 L 183.0709991455078 115.03600311279294 L 182.9980010986328 115.49999999999997 L 183.0709991455078 115.963996887207 L 183.28399658203125 116.38300323486325 L 183.61700439453125 116.7149963378906 L 184.03599548339844 116.92900085449216 M 395.9289855957031 115.963996887207 L 396.00299072265625 115.49999999999997 L 395.9289855957031 115.03600311279294 L 395.7521057128906 114.68800354003903 L 395.71600341796875 114.61699676513669 L 395.38299560546875 114.28399658203122 L 394.9639892578125 114.07099914550778 L 394.5 113.99700164794919 L 394.0360107421875 114.07099914550778 L 393.61700439453125 114.28399658203122 L 393.28399658203125 114.61699676513669 L 393.2478942871094 114.68800354003903 L 393.0710144042969 115.03600311279294 L 392.99798583984375 115.49999999999997 L 393.0710144042969 115.963996887207 L 393.28399658203125 116.38300323486325 L 393.61700439453125 116.7149963378906 L 394.0360107421875 116.92900085449216 L 394.5 117.00199890136716 L 394.9639892578125 116.92900085449216 L 395.38299560546875 116.7149963378906 L 395.71600341796875 116.38300323486325 L 395.9289855957031 115.963996887207 M 183.0709991455078 75.03600311279295 L 182.9980010986328 75.49999999999999 L 183.0414276123047 75.77600097656249 L 183.0709991455078 75.96399688720702 L 183.28399658203125 76.38300323486327 L 183.61700439453125 76.71499633789061 L 184.03599548339844 76.92900085449217 L 184.5 77.00199890136717 L 184.96400451660156 76.92900085449217 L 185.38299560546875 76.71499633789061 L 185.71600341796875 76.38300323486327 L 185.9290008544922 75.96399688720702 L 185.958984375 75.77600097656249 L 186.0030059814453 75.49999999999999 L 185.9290008544922 75.03600311279295 L 185.71600341796875 74.6169967651367 L 185.38299560546875 74.28399658203124 L 184.96400451660156 74.0709991455078 L 184.5 73.9970016479492 L 184.32000732421875 74.02570343017577 L 184.03599548339844 74.0709991455078 L 183.61700439453125 74.28399658203124 L 183.28399658203125 74.6169967651367 L 183.0709991455078 75.03600311279295 M 394.9639892578125 74.0709991455078 L 394.5 73.9970016479492 L 394.0360107421875 74.0709991455078 L 393.61700439453125 74.28399658203124 L 393.28399658203125 74.6169967651367 L 393.0710144042969 75.03600311279295 L 392.99798583984375 75.49999999999999 L 393.0414123535156 75.77600097656249 L 393.0710144042969 75.96399688720702 L 393.28399658203125 76.38300323486327 L 393.61700439453125 76.71499633789061 L 394.0360107421875 76.92900085449217 L 394.5 77.00199890136717 L 394.9639892578125 76.92900085449217 L 395.38299560546875 76.71499633789061 L 395.71600341796875 76.38300323486327 L 395.9289855957031 75.96399688720702 L 395.958984375 75.77600097656249 L 396.00299072265625 75.49999999999999 L 395.9289855957031 75.03600311279295 L 395.71600341796875 74.6169967651367 L 395.38299560546875 74.28399658203124 L 394.9639892578125 74.0709991455078 z" fill="none" stroke="rgb(255,0,0)" stroke-width="0.001mm" />
</svg>